# xmcd
#
# Track frame offsets:
# 150
# 13987
# 24767
# 32460
# 44447
# 60927
# 74020
# 82980
# 92837
# 102930
# 112772
# 126710
# 141812
# 158737
# 171790
# 184180
# 201120
# 209472
# 227892
# 242300
# 256465
# 267860
#
# Disc length: 3883 seconds
#
#
# Revision: 5
# Processed by: cddbd v1.5.1PL2 Copyright (c) Steve Scherf et al.
# Submitted via: FreeRIP 2.944 
#
DISCID=2b0f2916
DTITLE=Где-То На Белом Свете - Киношлягеры
DYEAR=1996
DGENRE=Soundtrack
TTITLE0=Нина Бродская - Звенит Январская Вьюга (Иван Васильевич Меняет Профессию)
TTITLE1=Лев Полосин - Кап-Кап-Кап (Иван Васильевич Меняет Профессию)
TTITLE2=Эстрадный Оркестр П-У В.Людвиковского - Погоня (Иван Васильевич Меняет Профессию)
TTITLE3=Валерий Золотухин - Разговор Со Счастьем (Иван Васильевич Меняет Профессию)
TTITLE4=Олег Анофриев - Есть Только Миг (Земля Санникова)
TTITLE5=Аида Ведищева - Песенка О Медведях (Кавказская Пленница)
TTITLE6=Эстрадный Оркестр П-У В.Людвиковского - Дорога (Кавказская Пленница)
TTITLE7=Андрей Миронов - Остров Невезения (Бриллиантовая Рука)
TTITLE8=Олег Даль - Мальчик Купидон (Не Может Быть)
TTITLE9=Александр Хочинский - О, Пощади! (Эскадрон Гусар Летучих)
TTITLE10=Александр Хочинский - Не Пробуждай (Эскадрон Гусар Летучих)
TTITLE11=Большой Детский Хор ВРиТ - Погоня (Новые Приключения Неуловимых)
TTITLE12=Юрий Гуляев - Русское Поле  (Новые Приключения Неуловимых)
TTITLE13=Людмила Сенчина - Лесной Олень (Ох, Уж Эта Настя!)
TTITLE14=Андрей Миронов - Песенка О Шпаге (Достояние Республики)
TTITLE15=Ирина Отиева - Романс Дианы (Собака На Сене)
TTITLE16=Михаил Боярский - Настанет День (Собака На Сене)
TTITLE17=Людмила Сенчина - Белой Акации Гроздья Душистые (Дни Турбиных)
TTITLE18=Михаил Боярский - Песенка Мушкетеров (Д'Артаньян И Три Мушкетёра)
TTITLE19=Павел Смеян - Непогода (Мэри Поппинс, До Свидания!)
TTITLE20=Татьяна Воронина - Леди Совершенство (Мэри Поппинс, До Свидания!)
TTITLE21=Татьяна Воронина, Павел Смеян - Ветер Перемен (Мэри Поппинс, До Свидания!)
EXTD=ID3G:   0
EXTT0=
EXTT1=
EXTT2=
EXTT3=
EXTT4=
EXTT5=
EXTT6=
EXTT7=
EXTT8=
EXTT9=
EXTT10=
EXTT11=
EXTT12=
EXTT13=
EXTT14=
EXTT15=
EXTT16=
EXTT17=
EXTT18=
EXTT19=
EXTT20=
EXTT21=
PLAYORDER=
